<svg width="28" height="28" viewBox="0 0 28 28" fill="none" xmlns="http://www.w3.org/2000/svg">
  <g opacity="0.5">
    <path d="M25 20.9998C25 21.5302 24.7893 22.0389 24.4142 22.414C24.0391 22.789 23.5304 22.9998 23 22.9998H5C4.46957 22.9998 3.96086 22.789 3.58579 22.414C3.21071 22.0389 3 21.5302 3 20.9998V9.99976C3 9.46932 3.21071 8.96061 3.58579 8.58554C3.96086 8.21047 4.46957 7.99976 5 7.99976H9L11 4.99976H17L19 7.99976H23C23.5304 7.99976 24.0391 8.21047 24.4142 8.58554C24.7893 8.96061 25 9.46932 25 9.99976V20.9998Z" stroke="#171D25" stroke-width="1.3" stroke-linecap="round" stroke-linejoin="round" />
    <path d="M14 18.9998C16.2091 18.9998 18 17.2089 18 14.9998C18 12.7906 16.2091 10.9998 14 10.9998C11.7909 10.9998 10 12.7906 10 14.9998C10 17.2089 11.7909 18.9998 14 18.9998Z" stroke="#171D25" stroke-width="1.3" stroke-linecap="round" stroke-linejoin="round" />
  </g>
</svg>
